<svg width="20" height="32" viewBox="0 0 20 32" fill="none" xmlns="http://www.w3.org/2000/svg">
<path d="M16.6667 31.8333C16.0042 31.8309 15.3694 31.5674 14.9 31.1L1.56667 17.7667C1.09438 17.3001 0.828568 16.6639 0.828568 16C0.828568 15.3361 1.09438 14.6999 1.56667 14.2333L14.9 0.899994C15.5232 0.23115 16.4619 -0.0441696 17.3476 0.182042C18.2334 0.408255 18.9251 1.09992 19.1513 1.9857C19.3775 2.87148 19.1022 3.81009 18.4333 4.43333L6.86667 16L18.4333 27.5667C18.9056 28.0332 19.1714 28.6695 19.1714 29.3333C19.1714 29.9972 18.9056 30.6334 18.4333 31.1C17.9639 31.5674 17.3291 31.8309 16.6667 31.8333Z" fill="#FA7509"/>
</svg>
