<svg width="35" height="28" viewBox="0 0 35 28" fill="none" xmlns="http://www.w3.org/2000/svg">
<g filter="url(#filter0_d_4_1518)">
<path d="M29.1905 18.6667L5.85717 18.6667C5.41515 18.6667 4.99122 18.8423 4.67866 19.1548C4.3661 19.4674 4.19051 19.8913 4.19051 20.3333C4.19051 20.7754 4.3661 21.1993 4.67866 21.5118C4.99122 21.8244 5.41515 22 5.85717 22L29.1905 22C29.6325 22 30.0565 21.8244 30.369 21.5118C30.6816 21.1993 30.8572 20.7754 30.8572 20.3333C30.8572 19.8913 30.6816 19.4674 30.369 19.1548C30.0565 18.8423 29.6325 18.6667 29.1905 18.6667ZM5.85717 13.6667L22.5238 13.6667C22.9659 13.6667 23.3898 13.4911 23.7024 13.1785C24.0149 12.8659 24.1905 12.442 24.1905 12C24.1905 11.558 24.0149 11.134 23.7024 10.8215C23.3898 10.5089 22.9659 10.3333 22.5238 10.3333L5.85717 10.3333C5.41515 10.3333 4.99122 10.5089 4.67866 10.8215C4.3661 11.134 4.19051 11.558 4.19051 12C4.19051 12.442 4.3661 12.8659 4.67866 13.1785C4.99122 13.4911 5.41515 13.6667 5.85717 13.6667ZM5.85718 5.33333L15.8572 5.33333C16.2992 5.33333 16.7231 5.15774 17.0357 4.84518C17.3482 4.53262 17.5238 4.10869 17.5238 3.66667C17.5238 3.22464 17.3482 2.80072 17.0357 2.48815C16.7231 2.17559 16.2992 2 15.8572 2L5.85718 2C5.41515 2 4.99122 2.17559 4.67866 2.48815C4.3661 2.80071 4.19051 3.22464 4.19051 3.66667C4.19051 4.10869 4.3661 4.53262 4.67866 4.84518C4.99122 5.15774 5.41515 5.33333 5.85718 5.33333Z" fill="#FA7509"/>
</g>
<defs>
<filter id="filter0_d_4_1518" x="0.190491" y="0" width="34.6667" height="28" filterUnits="userSpaceOnUse" color-interpolation-filters="sRGB">
<feFlood flood-opacity="0" result="BackgroundImageFix"/>
<feColorMatrix in="SourceAlpha" type="matrix" values="0 0 0 0 0 0 0 0 0 0 0 0 0 0 0 0 0 0 127 0" result="hardAlpha"/>
<feOffset dy="2"/>
<feGaussianBlur stdDeviation="2"/>
<feComposite in2="hardAlpha" operator="out"/>
<feColorMatrix type="matrix" values="0 0 0 0 0 0 0 0 0 0 0 0 0 0 0 0 0 0 0.25 0"/>
<feBlend mode="normal" in2="BackgroundImageFix" result="effect1_dropShadow_4_1518"/>
<feBlend mode="normal" in="SourceGraphic" in2="effect1_dropShadow_4_1518" result="shape"/>
</filter>
</defs>
</svg>
